<svg xmlns="http://www.w3.org/2000/svg" width="238.65" height="222" viewBox="0 0 238.65 222"><defs><style>.cls-1{fill:#68d179;}</style></defs><g id="Layer_2" data-name="Layer 2"><g id="Layer_1-2" data-name="Layer 1"><path class="cls-1" d="M167.91,50.62H70.3V171.38h97.61ZM82.5,67.53H93.89V78.8H82.5Zm0,19.32H93.89V98.12H82.5Zm0,19.32H93.89v11.27H82.5Zm45.55,48.54H82.5V143.44h45.55Zm19-56.59H101.55V86.85H147.1Zm0-19.32H101.55V67.52H147.1Z"/><path class="cls-1" d="M156.94,0H81.71A81.71,81.71,0,0,0,0,81.71v58.58A81.71,81.71,0,0,0,81.71,222h75.23a81.71,81.71,0,0,0,81.71-81.71V81.71A81.71,81.71,0,0,0,156.94,0Zm23.17,183.46H58.1V38.54h122Z"/></g></g></svg>