<svg xmlns="http://www.w3.org/2000/svg" width="300.89" height="316.38" viewBox="0 0 300.89 316.38"><defs><style>.cls-1{fill:#68d179;}</style></defs><g id="Layer_2" data-name="Layer 2"><g id="Layer_1-2" data-name="Layer 1"><path class="cls-1" d="M240.4,18.42c6.88-7.33,10.32-11,12.66-12.68a30.16,30.16,0,0,1,47.28,18.72c.55,2.84.55,7.87.55,17.92v239a75,75,0,0,1-.24,8.6,30.15,30.15,0,0,1-26.14,26.15,75.3,75.3,0,0,1-8.61.24H41.35c-9.32,0-14,0-16.74-.52A30.16,30.16,0,0,1,4.77,270c1.51-2.37,4.7-5.77,11.08-12.55Z"/></g></g></svg>