<svg xmlns="http://www.w3.org/2000/svg" width="533.2" height="427.14" viewBox="0 0 533.2 427.14"><defs><style>.cls-1{fill:#9ee2a9;stroke:#9ee2a9;}.cls-1,.cls-2{stroke-linecap:round;stroke-linejoin:round;}.cls-2{fill:none;}.cls-2,.cls-3{stroke:#68d179;}.cls-3{fill:#68d179;}</style></defs><g id="Layer_2" data-name="Layer 2"><g id="Layer_1-2" data-name="Layer 1"><path class="cls-1" d="M53.72.9H479.46a53.37,53.37,0,0,1,53.22,53.21V373.42a53.38,53.38,0,0,1-53.22,53.22H53.72A53.38,53.38,0,0,1,.5,373.42V54.11A53.37,53.37,0,0,1,53.72.9Z"/><path class="cls-2" d="M532.68,54.12,266.59,240.38.5,54.12"/><path class="cls-3" d="M268,242.54,532.68,54.11c-.34-5.39-2.07-21.6-14.78-35.42C498.19-2.73,469.49.51,466.52.9H60.91C12.58.9.5,35.42.5,52.68Z"/></g></g></svg>