<svg xmlns="http://www.w3.org/2000/svg" width="247.9" height="232.72" viewBox="0 0 247.9 232.72"><defs><style>.cls-1{fill:#68d179;}</style></defs><g id="Layer_2" data-name="Layer 2"><g id="Layer_1-2" data-name="Layer 1"><path class="cls-1" d="M101.71,89.28c0,9.55,8.63,13.56,19.73,16.49V72.47C107.72,74.17,101.71,81.1,101.71,89.28Z"/><path class="cls-1" d="M161.57,0H86.33A86.33,86.33,0,0,0,0,86.33v60.06a86.33,86.33,0,0,0,86.33,86.33h75.24a86.33,86.33,0,0,0,86.33-86.33V86.33A86.33,86.33,0,0,0,161.57,0ZM131.31,169.29v17.42h-9.87V169.29c-15.11-.77-29.45-6-37.46-13.41l5.7-12c7.25,6.63,19.27,11.56,31.76,12.33V120.42c-17-4.17-34.84-9.56-34.84-30.53,0-15.26,10.94-28.52,34.84-30.52V41.79h9.87V59.21c11.56.47,23.12,3.86,31.29,9.41L157.52,81a55.58,55.58,0,0,0-26.21-8.63v35.92c17.26,4.31,35.76,9.4,35.76,30.52C167.07,154,155.67,167.28,131.31,169.29Z"/><path class="cls-1" d="M131.31,122.88V156c14.33-1.39,20.66-8,20.66-16.34C152,129.82,142.72,126,131.31,122.88Z"/></g></g></svg>