<svg xmlns="http://www.w3.org/2000/svg" width="208.69" height="195.71" viewBox="0 0 208.69 195.71"><defs><style>.cls-1{fill:#fff;stroke:#68d179;stroke-width:2px;}.cls-2{fill:#68d179;}</style></defs><g id="Layer_2" data-name="Layer 2"><g id="Layer_1-2" data-name="Layer 1"><rect class="cls-1" x="1" y="1" width="206.69" height="193.71" rx="71.18"/><path class="cls-2" d="M139.46,112.91c0-18.06-15.82-22.41-30.59-26.1V56.1a47.41,47.41,0,0,1,22.41,7.38l4.35-10.54c-7-4.75-16.87-7.65-26.76-8V30h-8.43V45c-20.43,1.71-29.79,13-29.79,26.1,0,17.92,15.29,22.54,29.79,26.1v30.58c-10.68-.66-21-4.88-27.16-10.55l-4.87,10.28c6.85,6.33,19.11,10.81,32,11.47v14.9h8.43V139C129.7,137.3,139.46,126,139.46,112.91ZM83.57,70.6c0-7,5.14-12.92,16.87-14.37V84.7C91,82.2,83.57,78.77,83.57,70.6Zm25.3,57.07V99.33c9.76,2.64,17.67,5.94,17.67,14.37C126.54,120.82,121.13,126.49,108.87,127.67Z"/></g></g></svg>