<svg xmlns="http://www.w3.org/2000/svg" width="402.64" height="406.11" viewBox="0 0 402.64 406.11"><defs><style>.cls-1{fill:#68d179;}</style></defs><g id="Layer_2" data-name="Layer 2"><g id="Layer_1-2" data-name="Layer 1"><path class="cls-1" d="M370.11,280c-30.61-1.51-52.24-6.1-78.67-14.83-14.52-4.79-30.55.46-41.73,10.43-12.06,10.76-26.14,19-39.28,25.66C154.54,271.91,122.56,239.79,96,184.61c9-12.36,20-25.84,33.9-36.72,11.82-9.28,19.27-23.69,16-37.87-6-25.83-8.22-46.66-6.13-75.54C141,16.13,126.23-.08,106.76,0L42.24.25C32.2.29,22.51,4.66,17.69,13-12.95,66,1.27,144.41,22.26,187c.23.47.5.92.77,1.37,28.85,65.17,83.14,141.26,181.65,188.42l0,0c44,22.69,117.94,41.1,173.33,20.24,9.33-3.51,15.09-12.07,16.33-21.48l8-60.45C404.81,296.8,389.56,281,370.11,280Z"/></g></g></svg>