<svg xmlns="http://www.w3.org/2000/svg" width="208.69" height="205" viewBox="0 0 208.69 205"><defs><style>.cls-1{fill:#fff;stroke:#68d179;stroke-width:2px;}.cls-2,.cls-3{fill:#68d179;}.cls-2{fill-rule:evenodd;}</style></defs><g id="Layer_2" data-name="Layer 2"><g id="Layer_1-2" data-name="Layer 1"><rect class="cls-1" x="1" y="1" width="206.69" height="203" rx="71.18"/><path class="cls-2" d="M105.87,32.64A26.73,26.73,0,1,1,79.14,59.37,26.7,26.7,0,0,1,105.87,32.64Zm0,126.54a64.15,64.15,0,0,1-53.46-28.7C52.67,112.75,88.05,103,105.87,103s53.21,9.71,53.47,27.44A64.17,64.17,0,0,1,105.87,159.18Z"/><path class="cls-3" d="M105.87,159.18v-2.64h0Zm-53.46-28.7-2.64,0v.82l.45.68Zm106.93,0,2.2,1.46.45-.68v-.82ZM105.87,35.27A24.06,24.06,0,0,1,130,59.37h5.27A29.33,29.33,0,0,0,105.87,30ZM130,59.37a24.06,24.06,0,0,1-24.1,24.1v5.27a29.33,29.33,0,0,0,29.37-29.37Zm-24.1,24.1a24.06,24.06,0,0,1-24.09-24.1H76.5a29.33,29.33,0,0,0,29.37,29.37ZM81.78,59.37a24.06,24.06,0,0,1,24.09-24.1V30A29.33,29.33,0,0,0,76.5,59.37Zm24.09,97.17A61.53,61.53,0,0,1,54.6,129l-4.39,2.91a66.77,66.77,0,0,0,55.66,29.87ZM55,130.52c.05-3.48,1.82-6.78,5.13-9.88a45.6,45.6,0,0,1,13.4-8.1c10.8-4.51,23.75-6.87,32.3-6.87V100.4c-9.27,0-22.91,2.5-34.33,7.28a50.57,50.57,0,0,0-15,9.11c-4,3.71-6.71,8.27-6.79,13.65Zm50.83-24.85c8.51,0,21.47,2.36,32.27,6.87a45.78,45.78,0,0,1,13.43,8.1c3.31,3.1,5.08,6.4,5.14,9.88l5.27-.08c-.08-5.38-2.85-10-6.81-13.65s-9.28-6.72-15-9.11c-11.42-4.78-25.07-7.28-34.3-7.28ZM157.15,129a61.54,61.54,0,0,1-51.28,27.51v5.27a66.8,66.8,0,0,0,55.67-29.87Z"/></g></g></svg>