<svg xmlns="http://www.w3.org/2000/svg" width="247.9" height="231.25" viewBox="0 0 247.9 231.25"><defs><style>.cls-1{fill:#68d179;}</style></defs><g id="Layer_2" data-name="Layer 2"><g id="Layer_1-2" data-name="Layer 1"><path class="cls-1" d="M161.57,0H86.33A86.33,86.33,0,0,0,0,86.33v58.59a86.33,86.33,0,0,0,86.33,86.33h75.24a86.33,86.33,0,0,0,86.33-86.33V86.33A86.33,86.33,0,0,0,161.57,0ZM98.66,124.19,62.72,79.05,98.66,33.92,106,43,82.38,72.61h58V85.5h-58l23.52,29.6ZM152,200.36,144.67,191l23.71-30.52H110.51v-13.3h57.87l-23.65-30.52,7.28-9.38,36.16,46.55Z"/></g></g></svg>